<?xml version="1.0" encoding="utf-8"?>
<!-- Generator: Adobe Illustrator 16.0.0, SVG Export Plug-In . SVG Version: 6.00 Build 0)  -->
<!DOCTYPE svg PUBLIC "-//W3C//DTD SVG 1.1//EN" "http://www.w3.org/Graphics/SVG/1.1/DTD/svg11.dtd">
<svg version="1.1" id="Layer_1" xmlns="http://www.w3.org/2000/svg" xmlns:xlink="http://www.w3.org/1999/xlink" x="0px" y="0px"
	 width="1280px" height="300px" viewBox="0 0 1280 300" enable-background="new 0 0 1280 300" xml:space="preserve">
<g id="Layer_3">
	<rect x="0" fill="#FFFFFF" width="1280" height="300"/>
</g>
<g id="Layer_2">
	<g>
		<g>
			<defs>
				<rect id="SVGID_1_" x="0" width="1280" height="300"/>
			</defs>
			<clipPath id="SVGID_2_">
				<use xlink:href="#SVGID_1_"  overflow="visible"/>
			</clipPath>
			<g clip-path="url(#SVGID_2_)">
				<g>
					<line fill="none" stroke="#939598" stroke-miterlimit="10" x1="186.573" y1="904.521" x2="-193.454" y2="76.718"/>
					<line fill="none" stroke="#939598" stroke-miterlimit="10" x1="198.007" y1="898.292" x2="-182.02" y2="70.489"/>
					<line fill="none" stroke="#939598" stroke-miterlimit="10" x1="209.438" y1="892.066" x2="-170.588" y2="64.264"/>
					<line fill="none" stroke="#939598" stroke-miterlimit="10" x1="220.87" y1="885.841" x2="-159.156" y2="58.037"/>
					<line fill="none" stroke="#939598" stroke-miterlimit="10" x1="232.301" y1="879.61" x2="-147.724" y2="51.807"/>
					<line fill="none" stroke="#939598" stroke-miterlimit="10" x1="243.734" y1="873.383" x2="-136.293" y2="45.583"/>
					<line fill="none" stroke="#939598" stroke-miterlimit="10" x1="255.165" y1="867.157" x2="-124.861" y2="39.353"/>
					<line fill="none" stroke="#939598" stroke-miterlimit="10" x1="266.597" y1="860.93" x2="-113.43" y2="33.128"/>
					<line fill="none" stroke="#939598" stroke-miterlimit="10" x1="278.029" y1="854.702" x2="-101.998" y2="26.898"/>
					<line fill="none" stroke="#939598" stroke-miterlimit="10" x1="289.46" y1="848.475" x2="-90.567" y2="20.671"/>
					<line fill="none" stroke="#939598" stroke-miterlimit="10" x1="300.892" y1="842.248" x2="-79.135" y2="14.444"/>
					<line fill="none" stroke="#939598" stroke-miterlimit="10" x1="312.324" y1="836.021" x2="-67.703" y2="8.219"/>
					<line fill="none" stroke="#939598" stroke-miterlimit="10" x1="323.755" y1="829.793" x2="-56.271" y2="1.989"/>
					<line fill="none" stroke="#939598" stroke-miterlimit="10" x1="335.188" y1="823.565" x2="-44.839" y2="-4.237"/>
					<line fill="none" stroke="#939598" stroke-miterlimit="10" x1="346.618" y1="817.338" x2="-33.408" y2="-10.465"/>
					<line fill="none" stroke="#939598" stroke-miterlimit="10" x1="358.051" y1="811.112" x2="-21.977" y2="-16.692"/>
					<line fill="none" stroke="#939598" stroke-miterlimit="10" x1="369.482" y1="804.884" x2="-10.544" y2="-22.921"/>
					<line fill="none" stroke="#939598" stroke-miterlimit="10" x1="380.914" y1="798.656" x2="0.887" y2="-29.148"/>
					<line fill="none" stroke="#939598" stroke-miterlimit="10" x1="392.346" y1="792.429" x2="12.319" y2="-35.376"/>
					<line fill="none" stroke="#939598" stroke-miterlimit="10" x1="403.776" y1="786.201" x2="23.75" y2="-41.601"/>
					<line fill="none" stroke="#939598" stroke-miterlimit="10" x1="415.209" y1="779.974" x2="35.183" y2="-47.831"/>
					<line fill="none" stroke="#939598" stroke-miterlimit="10" x1="426.641" y1="773.748" x2="46.614" y2="-54.057"/>
					<line fill="none" stroke="#939598" stroke-miterlimit="10" x1="438.072" y1="767.52" x2="58.046" y2="-60.285"/>
					<line fill="none" stroke="#939598" stroke-miterlimit="10" x1="449.504" y1="761.292" x2="69.477" y2="-66.511"/>
					<line fill="none" stroke="#939598" stroke-miterlimit="10" x1="460.936" y1="755.066" x2="80.909" y2="-72.741"/>
					<line fill="none" stroke="#939598" stroke-miterlimit="10" x1="472.368" y1="748.839" x2="92.342" y2="-78.968"/>
					<line fill="none" stroke="#939598" stroke-miterlimit="10" x1="483.799" y1="742.611" x2="103.773" y2="-85.193"/>
					<line fill="none" stroke="#939598" stroke-miterlimit="10" x1="495.231" y1="736.384" x2="115.204" y2="-91.42"/>
					<line fill="none" stroke="#939598" stroke-miterlimit="10" x1="506.663" y1="730.155" x2="126.637" y2="-97.65"/>
					<line fill="none" stroke="#939598" stroke-miterlimit="10" x1="518.095" y1="723.93" x2="138.067" y2="-103.875"/>
					<line fill="none" stroke="#939598" stroke-miterlimit="10" x1="529.526" y1="717.702" x2="149.499" y2="-110.104"/>
					<line fill="none" stroke="#939598" stroke-miterlimit="10" x1="540.958" y1="711.475" x2="160.931" y2="-116.331"/>
					<line fill="none" stroke="#939598" stroke-miterlimit="10" x1="552.39" y1="705.247" x2="172.363" y2="-122.561"/>
					<line fill="none" stroke="#939598" stroke-miterlimit="10" x1="563.82" y1="699.02" x2="183.795" y2="-128.786"/>
					<line fill="none" stroke="#939598" stroke-miterlimit="10" x1="575.254" y1="692.794" x2="195.226" y2="-135.013"/>
					<line fill="none" stroke="#939598" stroke-miterlimit="10" x1="586.685" y1="686.563" x2="206.658" y2="-141.24"/>
					<line fill="none" stroke="#939598" stroke-miterlimit="10" x1="598.117" y1="680.338" x2="218.088" y2="-147.468"/>
					<line fill="none" stroke="#939598" stroke-miterlimit="10" x1="609.547" y1="674.112" x2="229.521" y2="-153.694"/>
					<line fill="none" stroke="#939598" stroke-miterlimit="10" x1="620.979" y1="667.883" x2="240.952" y2="-159.922"/>
					<line fill="none" stroke="#939598" stroke-miterlimit="10" x1="632.412" y1="661.655" x2="252.384" y2="-166.152"/>
					<line fill="none" stroke="#939598" stroke-miterlimit="10" x1="643.844" y1="655.43" x2="263.816" y2="-172.379"/>
					<line fill="none" stroke="#939598" stroke-miterlimit="10" x1="655.275" y1="649.201" x2="275.248" y2="-178.603"/>
					<line fill="none" stroke="#939598" stroke-miterlimit="10" x1="666.707" y1="642.976" x2="286.68" y2="-184.833"/>
					<line fill="none" stroke="#939598" stroke-miterlimit="10" x1="678.139" y1="636.746" x2="298.111" y2="-191.058"/>
					<line fill="none" stroke="#939598" stroke-miterlimit="10" x1="689.568" y1="630.521" x2="309.542" y2="-197.288"/>
					<line fill="none" stroke="#939598" stroke-miterlimit="10" x1="701.001" y1="624.295" x2="320.975" y2="-203.514"/>
					<line fill="none" stroke="#939598" stroke-miterlimit="10" x1="712.433" y1="618.064" x2="332.407" y2="-209.742"/>
					<line fill="none" stroke="#939598" stroke-miterlimit="10" x1="723.865" y1="611.837" x2="343.837" y2="-215.97"/>
					<line fill="none" stroke="#939598" stroke-miterlimit="10" x1="735.297" y1="605.611" x2="355.271" y2="-222.196"/>
					<line fill="none" stroke="#939598" stroke-miterlimit="10" x1="746.729" y1="599.384" x2="366.703" y2="-228.423"/>
					<line fill="none" stroke="#939598" stroke-miterlimit="10" x1="758.16" y1="593.154" x2="378.133" y2="-234.651"/>
					<line fill="none" stroke="#939598" stroke-miterlimit="10" x1="769.591" y1="586.929" x2="389.565" y2="-240.878"/>
					<line fill="none" stroke="#939598" stroke-miterlimit="10" x1="781.022" y1="580.701" x2="400.996" y2="-247.105"/>
					<line fill="none" stroke="#939598" stroke-miterlimit="10" x1="792.454" y1="574.478" x2="412.428" y2="-253.332"/>
					<line fill="none" stroke="#939598" stroke-miterlimit="10" x1="803.887" y1="568.247" x2="423.861" y2="-259.562"/>
					<line fill="none" stroke="#939598" stroke-miterlimit="10" x1="815.318" y1="562.018" x2="435.291" y2="-265.79"/>
					<line fill="none" stroke="#939598" stroke-miterlimit="10" x1="826.75" y1="555.792" x2="446.723" y2="-272.014"/>
					<line fill="none" stroke="#939598" stroke-miterlimit="10" x1="838.183" y1="549.566" x2="458.155" y2="-278.244"/>
					<line fill="none" stroke="#939598" stroke-miterlimit="10" x1="849.614" y1="543.336" x2="469.587" y2="-284.471"/>
					<line fill="none" stroke="#939598" stroke-miterlimit="10" x1="861.044" y1="537.11" x2="481.018" y2="-290.698"/>
					<line fill="none" stroke="#939598" stroke-miterlimit="10" x1="872.477" y1="530.883" x2="492.45" y2="-296.923"/>
					<line fill="none" stroke="#939598" stroke-miterlimit="10" x1="883.908" y1="524.655" x2="503.882" y2="-303.153"/>
					<line fill="none" stroke="#939598" stroke-miterlimit="10" x1="895.34" y1="518.43" x2="515.314" y2="-309.379"/>
					<line fill="none" stroke="#939598" stroke-miterlimit="10" x1="906.772" y1="512.2" x2="526.745" y2="-315.609"/>
					<line fill="none" stroke="#939598" stroke-miterlimit="10" x1="918.204" y1="505.975" x2="538.177" y2="-321.833"/>
					<line fill="none" stroke="#939598" stroke-miterlimit="10" x1="929.636" y1="499.746" x2="549.609" y2="-328.062"/>
					<line fill="none" stroke="#939598" stroke-miterlimit="10" x1="941.066" y1="493.519" x2="561.041" y2="-334.29"/>
					<line fill="none" stroke="#939598" stroke-miterlimit="10" x1="952.498" y1="487.293" x2="572.472" y2="-340.518"/>
					<line fill="none" stroke="#939598" stroke-miterlimit="10" x1="963.93" y1="481.065" x2="583.903" y2="-346.743"/>
					<line fill="none" stroke="#939598" stroke-miterlimit="10" x1="975.362" y1="474.838" x2="595.336" y2="-352.973"/>
					<line fill="none" stroke="#939598" stroke-miterlimit="10" x1="986.794" y1="468.612" x2="606.768" y2="-359.199"/>
					<line fill="none" stroke="#939598" stroke-miterlimit="10" x1="998.226" y1="462.382" x2="618.199" y2="-365.427"/>
					<line fill="none" stroke="#939598" stroke-miterlimit="10" x1="1009.658" y1="456.156" x2="629.631" y2="-371.653"/>
					<line fill="none" stroke="#939598" stroke-miterlimit="10" x1="1021.09" y1="449.929" x2="641.062" y2="-377.881"/>
					<line fill="none" stroke="#939598" stroke-miterlimit="10" x1="1032.52" y1="443.701" x2="652.494" y2="-384.108"/>
					<line fill="none" stroke="#939598" stroke-miterlimit="10" x1="1043.952" y1="437.472" x2="663.926" y2="-390.335"/>
					<line fill="none" stroke="#939598" stroke-miterlimit="10" x1="1055.384" y1="431.246" x2="675.358" y2="-396.562"/>
					<line fill="none" stroke="#939598" stroke-miterlimit="10" x1="1066.815" y1="425.021" x2="686.79" y2="-402.792"/>
					<line fill="none" stroke="#939598" stroke-miterlimit="10" x1="1078.248" y1="418.795" x2="698.22" y2="-409.017"/>
					<line fill="none" stroke="#939598" stroke-miterlimit="10" x1="1089.68" y1="412.564" x2="709.652" y2="-415.247"/>
					<line fill="none" stroke="#939598" stroke-miterlimit="10" x1="1101.111" y1="406.337" x2="721.084" y2="-421.471"/>
					<line fill="none" stroke="#939598" stroke-miterlimit="10" x1="1112.541" y1="400.109" x2="732.516" y2="-427.701"/>
					<line fill="none" stroke="#939598" stroke-miterlimit="10" x1="1123.974" y1="393.884" x2="743.945" y2="-433.928"/>
					<line fill="none" stroke="#939598" stroke-miterlimit="10" x1="1135.405" y1="387.653" x2="755.378" y2="-440.155"/>
					<line fill="none" stroke="#939598" stroke-miterlimit="10" x1="1146.838" y1="381.428" x2="766.81" y2="-446.382"/>
					<line fill="none" stroke="#939598" stroke-miterlimit="10" x1="1158.27" y1="375.2" x2="778.242" y2="-452.61"/>
					<line fill="none" stroke="#939598" stroke-miterlimit="10" x1="1169.701" y1="368.973" x2="789.674" y2="-458.836"/>
					<line fill="none" stroke="#939598" stroke-miterlimit="10" x1="1181.131" y1="362.747" x2="801.105" y2="-465.064"/>
					<line fill="none" stroke="#939598" stroke-miterlimit="10" x1="1192.563" y1="356.52" x2="812.537" y2="-471.291"/>
					<line fill="none" stroke="#939598" stroke-miterlimit="10" x1="1203.995" y1="350.292" x2="823.97" y2="-477.519"/>
					<line fill="none" stroke="#939598" stroke-miterlimit="10" x1="1215.428" y1="344.066" x2="835.399" y2="-483.745"/>
					<line fill="none" stroke="#939598" stroke-miterlimit="10" x1="1226.857" y1="337.836" x2="846.831" y2="-489.975"/>
					<line fill="none" stroke="#939598" stroke-miterlimit="10" x1="1238.291" y1="331.61" x2="858.264" y2="-496.2"/>
					<line fill="none" stroke="#939598" stroke-miterlimit="10" x1="1249.721" y1="325.383" x2="869.695" y2="-502.43"/>
					<line fill="none" stroke="#939598" stroke-miterlimit="10" x1="1261.153" y1="319.155" x2="881.127" y2="-508.656"/>
					<line fill="none" stroke="#939598" stroke-miterlimit="10" x1="1272.585" y1="312.93" x2="892.56" y2="-514.884"/>
					<line fill="none" stroke="#939598" stroke-miterlimit="10" x1="1284.017" y1="306.701" x2="903.989" y2="-521.108"/>
					<line fill="none" stroke="#939598" stroke-miterlimit="10" x1="1295.449" y1="300.474" x2="915.421" y2="-527.338"/>
					<line fill="none" stroke="#939598" stroke-miterlimit="10" x1="1306.881" y1="294.248" x2="926.854" y2="-533.565"/>
					<line fill="none" stroke="#939598" stroke-miterlimit="10" x1="1318.312" y1="288.019" x2="938.285" y2="-539.793"/>
					<line fill="none" stroke="#939598" stroke-miterlimit="10" x1="1329.743" y1="281.793" x2="949.717" y2="-546.02"/>
					<line fill="none" stroke="#939598" stroke-miterlimit="10" x1="1341.175" y1="275.565" x2="961.149" y2="-552.247"/>
					<line fill="none" stroke="#939598" stroke-miterlimit="10" x1="1352.606" y1="269.337" x2="972.581" y2="-558.474"/>
					<line fill="none" stroke="#939598" stroke-miterlimit="10" x1="1364.039" y1="263.107" x2="984.011" y2="-564.702"/>
					<line fill="none" stroke="#939598" stroke-miterlimit="10" x1="1375.471" y1="256.882" x2="995.443" y2="-570.929"/>
					<line fill="none" stroke="#939598" stroke-miterlimit="10" x1="1386.9" y1="250.656" x2="1006.875" y2="-577.156"/>
					<line fill="none" stroke="#939598" stroke-miterlimit="10" x1="1398.333" y1="244.431" x2="1018.307" y2="-583.383"/>
					<line fill="none" stroke="#939598" stroke-miterlimit="10" x1="1409.765" y1="238.201" x2="1029.739" y2="-589.612"/>
					<line fill="none" stroke="#939598" stroke-miterlimit="10" x1="1421.196" y1="231.976" x2="1041.171" y2="-595.838"/>
					<line fill="none" stroke="#939598" stroke-miterlimit="10" x1="1432.629" y1="225.747" x2="1052.601" y2="-602.067"/>
					<line fill="none" stroke="#939598" stroke-miterlimit="10" x1="1444.061" y1="219.52" x2="1064.033" y2="-608.293"/>
					<line fill="none" stroke="#939598" stroke-miterlimit="10" x1="1455.492" y1="213.29" x2="1075.465" y2="-614.521"/>
					<line fill="none" stroke="#939598" stroke-miterlimit="10" x1="1466.923" y1="207.064" x2="1086.896" y2="-620.749"/>
					<line fill="none" stroke="#939598" stroke-miterlimit="10" x1="1478.354" y1="200.839" x2="1098.329" y2="-626.976"/>
					<line fill="none" stroke="#939598" stroke-miterlimit="10" x1="1489.786" y1="194.613" x2="1109.761" y2="-633.202"/>
					<line fill="none" stroke="#939598" stroke-miterlimit="10" x1="1501.219" y1="188.383" x2="1121.19" y2="-639.43"/>
					<line fill="none" stroke="#939598" stroke-miterlimit="10" x1="1512.65" y1="182.155" x2="1132.623" y2="-645.658"/>
					<line fill="none" stroke="#939598" stroke-miterlimit="10" x1="1524.082" y1="175.928" x2="1144.055" y2="-651.885"/>
					<line fill="none" stroke="#939598" stroke-miterlimit="10" x1="1535.515" y1="169.702" x2="1155.486" y2="-658.111"/>
					<line fill="none" stroke="#939598" stroke-miterlimit="10" x1="1546.944" y1="163.473" x2="1166.919" y2="-664.339"/>
					<line fill="none" stroke="#939598" stroke-miterlimit="10" x1="1558.376" y1="157.247" x2="1178.351" y2="-670.566"/>
					<line fill="none" stroke="#939598" stroke-miterlimit="10" x1="1569.809" y1="151.019" x2="1189.782" y2="-676.793"/>
					<line fill="none" stroke="#939598" stroke-miterlimit="10" x1="1581.24" y1="144.792" x2="1201.213" y2="-683.022"/>
					<line fill="none" stroke="#939598" stroke-miterlimit="10" x1="1592.672" y1="138.564" x2="1212.645" y2="-689.248"/>
					<line fill="none" stroke="#939598" stroke-miterlimit="10" x1="1604.104" y1="132.338" x2="1224.076" y2="-695.476"/>
					<line fill="none" stroke="#939598" stroke-miterlimit="10" x1="1615.534" y1="126.11" x2="1235.506" y2="-701.702"/>
					<line fill="none" stroke="#939598" stroke-miterlimit="10" x1="1626.966" y1="119.886" x2="1246.94" y2="-707.931"/>
					<line fill="none" stroke="#939598" stroke-miterlimit="10" x1="1638.398" y1="113.656" x2="1258.37" y2="-714.157"/>
					<line fill="none" stroke="#939598" stroke-miterlimit="10" x1="1649.83" y1="107.429" x2="1269.803" y2="-720.387"/>
					<line fill="none" stroke="#939598" stroke-miterlimit="10" x1="1661.262" y1="101.201" x2="1281.234" y2="-726.613"/>
					<line fill="none" stroke="#939598" stroke-miterlimit="10" x1="1672.693" y1="94.975" x2="1292.666" y2="-732.841"/>
					<line fill="none" stroke="#939598" stroke-miterlimit="10" x1="1684.124" y1="88.747" x2="1304.098" y2="-739.067"/>
					<line fill="none" stroke="#939598" stroke-miterlimit="10" x1="1695.556" y1="82.52" x2="1315.53" y2="-745.295"/>
					<line fill="none" stroke="#939598" stroke-miterlimit="10" x1="1706.988" y1="76.292" x2="1326.962" y2="-751.522"/>
					<line fill="none" stroke="#939598" stroke-miterlimit="10" x1="1718.42" y1="70.066" x2="1338.392" y2="-757.75"/>
					<line fill="none" stroke="#939598" stroke-miterlimit="10" x1="1729.852" y1="63.836" x2="1349.824" y2="-763.977"/>
					<line fill="none" stroke="#939598" stroke-miterlimit="10" x1="1741.283" y1="57.611" x2="1361.256" y2="-770.204"/>
					<line fill="none" stroke="#939598" stroke-miterlimit="10" x1="1752.716" y1="51.384" x2="1372.688" y2="-776.431"/>
					<line fill="none" stroke="#939598" stroke-miterlimit="10" x1="1764.146" y1="45.157" x2="1384.12" y2="-782.661"/>
					<line fill="none" stroke="#939598" stroke-miterlimit="10" x1="1775.577" y1="38.927" x2="1395.55" y2="-788.887"/>
					<line fill="none" stroke="#939598" stroke-miterlimit="10" x1="1787.01" y1="32.701" x2="1406.983" y2="-795.113"/>
					<line fill="none" stroke="#939598" stroke-miterlimit="10" x1="1798.441" y1="26.475" x2="1418.416" y2="-801.339"/>
					<line fill="none" stroke="#939598" stroke-miterlimit="10" x1="1809.871" y1="20.248" x2="1429.846" y2="-807.569"/>
					<line fill="none" stroke="#939598" stroke-miterlimit="10" x1="1821.304" y1="14.019" x2="1441.277" y2="-813.796"/>
					<line fill="none" stroke="#939598" stroke-miterlimit="10" x1="1832.735" y1="7.794" x2="1452.71" y2="-820.024"/>
					<line fill="none" stroke="#939598" stroke-miterlimit="10" x1="1844.167" y1="1.566" x2="1464.142" y2="-826.25"/>
					<line fill="none" stroke="#939598" stroke-miterlimit="10" x1="1855.6" y1="-4.661" x2="1475.573" y2="-832.478"/>
					<line fill="none" stroke="#939598" stroke-miterlimit="10" x1="1867.031" y1="-10.891" x2="1487.004" y2="-838.705"/>
					<line fill="none" stroke="#939598" stroke-miterlimit="10" x1="1878.461" y1="-17.117" x2="1498.436" y2="-844.933"/>
					<line fill="none" stroke="#939598" stroke-miterlimit="10" x1="1889.896" y1="-23.343" x2="1509.867" y2="-851.159"/>
					<line fill="none" stroke="#939598" stroke-miterlimit="10" x1="1901.325" y1="-29.57" x2="1521.3" y2="-857.387"/>
					<line fill="none" stroke="#939598" stroke-miterlimit="10" x1="1912.757" y1="-35.799" x2="1532.731" y2="-863.614"/>
				</g>
			</g>
		</g>
	</g>
	<g id="Layer_1_1_">
		<polygon fill="#65C5B0" points="1280,300 1280,0 615.439,191.756 615.439,300 		"/>
		<polygon fill="#A71E32" points="0,299.998 0,0 643.052,0 780.774,300 		"/>
	</g>
</g>
</svg>
