<?xml version="1.0" encoding="utf-8"?>
<!-- Generator: Adobe Illustrator 16.0.4, SVG Export Plug-In . SVG Version: 6.00 Build 0)  -->
<!DOCTYPE svg PUBLIC "-//W3C//DTD SVG 1.1//EN" "http://www.w3.org/Graphics/SVG/1.1/DTD/svg11.dtd">
<svg version="1.1" xmlns="http://www.w3.org/2000/svg" xmlns:xlink="http://www.w3.org/1999/xlink" x="0px" y="0px" width="1264px"
	 height="136px" viewBox="0 0 1264 136" enable-background="new 0 0 1264 136" xml:space="preserve">
<g id="Layer_3">
	<rect fill="#FFFFFF" width="1264" height="136"/>
</g>
<g id="Layer_2">
	<g>
		<defs>
			<rect id="SVGID_1_" width="1264" height="136"/>
		</defs>
		<clipPath id="SVGID_2_">
			<use xlink:href="#SVGID_1_"  overflow="visible"/>
		</clipPath>
		<g clip-path="url(#SVGID_2_)">
			<g>
				<line fill="none" stroke="#939598" stroke-miterlimit="10" x1="184.24" y1="410.05" x2="-191.036" y2="34.779"/>
				<line fill="none" stroke="#939598" stroke-miterlimit="10" x1="195.531" y1="407.226" x2="-179.745" y2="31.955"/>
				<line fill="none" stroke="#939598" stroke-miterlimit="10" x1="206.82" y1="404.403" x2="-168.456" y2="29.133"/>
				<line fill="none" stroke="#939598" stroke-miterlimit="10" x1="218.109" y1="401.581" x2="-157.167" y2="26.31"/>
				<line fill="none" stroke="#939598" stroke-miterlimit="10" x1="229.397" y1="398.757" x2="-145.878" y2="23.486"/>
				<line fill="none" stroke="#939598" stroke-miterlimit="10" x1="240.687" y1="395.934" x2="-134.59" y2="20.664"/>
				<line fill="none" stroke="#939598" stroke-miterlimit="10" x1="251.975" y1="393.111" x2="-123.301" y2="17.84"/>
				<line fill="none" stroke="#939598" stroke-miterlimit="10" x1="263.264" y1="390.288" x2="-112.012" y2="15.018"/>
				<line fill="none" stroke="#939598" stroke-miterlimit="10" x1="274.553" y1="387.465" x2="-100.723" y2="12.194"/>
				<line fill="none" stroke="#939598" stroke-miterlimit="10" x1="285.842" y1="384.642" x2="-89.435" y2="9.371"/>
				<line fill="none" stroke="#939598" stroke-miterlimit="10" x1="297.13" y1="381.819" x2="-78.146" y2="6.548"/>
				<line fill="none" stroke="#939598" stroke-miterlimit="10" x1="308.42" y1="378.996" x2="-66.857" y2="3.726"/>
				<line fill="none" stroke="#939598" stroke-miterlimit="10" x1="319.708" y1="376.173" x2="-55.568" y2="0.902"/>
				<line fill="none" stroke="#939598" stroke-miterlimit="10" x1="330.997" y1="373.35" x2="-44.279" y2="-1.921"/>
				<line fill="none" stroke="#939598" stroke-miterlimit="10" x1="342.285" y1="370.526" x2="-32.991" y2="-4.744"/>
				<line fill="none" stroke="#939598" stroke-miterlimit="10" x1="353.575" y1="367.704" x2="-21.702" y2="-7.567"/>
				<line fill="none" stroke="#939598" stroke-miterlimit="10" x1="364.863" y1="364.881" x2="-10.413" y2="-10.391"/>
				<line fill="none" stroke="#939598" stroke-miterlimit="10" x1="376.152" y1="362.058" x2="0.875" y2="-13.214"/>
				<line fill="none" stroke="#939598" stroke-miterlimit="10" x1="387.441" y1="359.234" x2="12.165" y2="-16.037"/>
				<line fill="none" stroke="#939598" stroke-miterlimit="10" x1="398.729" y1="356.411" x2="23.453" y2="-18.859"/>
				<line fill="none" stroke="#939598" stroke-miterlimit="10" x1="410.019" y1="353.588" x2="34.742" y2="-21.683"/>
				<line fill="none" stroke="#939598" stroke-miterlimit="10" x1="421.308" y1="350.766" x2="46.031" y2="-24.506"/>
				<line fill="none" stroke="#939598" stroke-miterlimit="10" x1="432.596" y1="347.942" x2="57.32" y2="-27.329"/>
				<line fill="none" stroke="#939598" stroke-miterlimit="10" x1="443.885" y1="345.119" x2="68.608" y2="-30.152"/>
				<line fill="none" stroke="#939598" stroke-miterlimit="10" x1="455.174" y1="342.297" x2="79.897" y2="-32.976"/>
				<line fill="none" stroke="#939598" stroke-miterlimit="10" x1="466.463" y1="339.474" x2="91.187" y2="-35.799"/>
				<line fill="none" stroke="#939598" stroke-miterlimit="10" x1="477.751" y1="336.65" x2="102.475" y2="-38.621"/>
				<line fill="none" stroke="#939598" stroke-miterlimit="10" x1="489.04" y1="333.827" x2="113.763" y2="-41.444"/>
				<line fill="none" stroke="#939598" stroke-miterlimit="10" x1="500.329" y1="331.004" x2="125.053" y2="-44.268"/>
				<line fill="none" stroke="#939598" stroke-miterlimit="10" x1="511.618" y1="328.182" x2="136.341" y2="-47.09"/>
				<line fill="none" stroke="#939598" stroke-miterlimit="10" x1="522.906" y1="325.358" x2="147.63" y2="-49.914"/>
				<line fill="none" stroke="#939598" stroke-miterlimit="10" x1="534.195" y1="322.535" x2="158.919" y2="-52.737"/>
				<line fill="none" stroke="#939598" stroke-miterlimit="10" x1="545.484" y1="319.712" x2="170.208" y2="-55.561"/>
				<line fill="none" stroke="#939598" stroke-miterlimit="10" x1="556.772" y1="316.889" x2="181.497" y2="-58.383"/>
				<line fill="none" stroke="#939598" stroke-miterlimit="10" x1="568.062" y1="314.066" x2="192.785" y2="-61.206"/>
				<line fill="none" stroke="#939598" stroke-miterlimit="10" x1="579.351" y1="311.242" x2="204.074" y2="-64.029"/>
				<line fill="none" stroke="#939598" stroke-miterlimit="10" x1="590.64" y1="308.42" x2="215.362" y2="-66.852"/>
				<line fill="none" stroke="#939598" stroke-miterlimit="10" x1="601.928" y1="305.598" x2="226.652" y2="-69.675"/>
				<line fill="none" stroke="#939598" stroke-miterlimit="10" x1="613.217" y1="302.773" x2="237.94" y2="-72.498"/>
				<line fill="none" stroke="#939598" stroke-miterlimit="10" x1="624.506" y1="299.95" x2="249.229" y2="-75.322"/>
				<line fill="none" stroke="#939598" stroke-miterlimit="10" x1="635.795" y1="297.128" x2="260.518" y2="-78.145"/>
				<line fill="none" stroke="#939598" stroke-miterlimit="10" x1="647.083" y1="294.305" x2="271.807" y2="-80.967"/>
				<line fill="none" stroke="#939598" stroke-miterlimit="10" x1="658.372" y1="291.482" x2="283.096" y2="-83.791"/>
				<line fill="none" stroke="#939598" stroke-miterlimit="10" x1="669.661" y1="288.658" x2="294.384" y2="-86.613"/>
				<line fill="none" stroke="#939598" stroke-miterlimit="10" x1="680.949" y1="285.836" x2="305.673" y2="-89.437"/>
				<line fill="none" stroke="#939598" stroke-miterlimit="10" x1="692.238" y1="283.013" x2="316.962" y2="-92.26"/>
				<line fill="none" stroke="#939598" stroke-miterlimit="10" x1="703.527" y1="280.189" x2="328.251" y2="-95.083"/>
				<line fill="none" stroke="#939598" stroke-miterlimit="10" x1="714.815" y1="277.366" x2="339.539" y2="-97.906"/>
				<line fill="none" stroke="#939598" stroke-miterlimit="10" x1="726.105" y1="274.544" x2="350.829" y2="-100.729"/>
				<line fill="none" stroke="#939598" stroke-miterlimit="10" x1="737.394" y1="271.721" x2="362.118" y2="-103.552"/>
				<line fill="none" stroke="#939598" stroke-miterlimit="10" x1="748.683" y1="268.897" x2="373.406" y2="-106.375"/>
				<line fill="none" stroke="#939598" stroke-miterlimit="10" x1="759.971" y1="266.074" x2="384.695" y2="-109.198"/>
				<line fill="none" stroke="#939598" stroke-miterlimit="10" x1="771.26" y1="263.251" x2="395.983" y2="-112.021"/>
				<line fill="none" stroke="#939598" stroke-miterlimit="10" x1="782.549" y1="260.429" x2="407.272" y2="-114.844"/>
				<line fill="none" stroke="#939598" stroke-miterlimit="10" x1="793.838" y1="257.605" x2="418.562" y2="-117.668"/>
				<line fill="none" stroke="#939598" stroke-miterlimit="10" x1="805.126" y1="254.781" x2="429.85" y2="-120.491"/>
				<line fill="none" stroke="#939598" stroke-miterlimit="10" x1="816.415" y1="251.959" x2="441.139" y2="-123.313"/>
				<line fill="none" stroke="#939598" stroke-miterlimit="10" x1="827.704" y1="249.137" x2="452.428" y2="-126.137"/>
				<line fill="none" stroke="#939598" stroke-miterlimit="10" x1="838.993" y1="246.312" x2="463.717" y2="-128.96"/>
				<line fill="none" stroke="#939598" stroke-miterlimit="10" x1="850.281" y1="243.49" x2="475.005" y2="-131.783"/>
				<line fill="none" stroke="#939598" stroke-miterlimit="10" x1="861.57" y1="240.667" x2="486.294" y2="-134.605"/>
				<line fill="none" stroke="#939598" stroke-miterlimit="10" x1="872.859" y1="237.844" x2="497.583" y2="-137.429"/>
				<line fill="none" stroke="#939598" stroke-miterlimit="10" x1="884.148" y1="235.021" x2="508.872" y2="-140.252"/>
				<line fill="none" stroke="#939598" stroke-miterlimit="10" x1="895.437" y1="232.197" x2="520.16" y2="-143.076"/>
				<line fill="none" stroke="#939598" stroke-miterlimit="10" x1="906.726" y1="229.375" x2="531.449" y2="-145.898"/>
				<line fill="none" stroke="#939598" stroke-miterlimit="10" x1="918.015" y1="226.552" x2="542.738" y2="-148.721"/>
				<line fill="none" stroke="#939598" stroke-miterlimit="10" x1="929.303" y1="223.729" x2="554.027" y2="-151.545"/>
				<line fill="none" stroke="#939598" stroke-miterlimit="10" x1="940.592" y1="220.906" x2="565.315" y2="-154.368"/>
				<line fill="none" stroke="#939598" stroke-miterlimit="10" x1="951.881" y1="218.083" x2="576.604" y2="-157.19"/>
				<line fill="none" stroke="#939598" stroke-miterlimit="10" x1="963.17" y1="215.26" x2="587.894" y2="-160.014"/>
				<line fill="none" stroke="#939598" stroke-miterlimit="10" x1="974.459" y1="212.437" x2="599.183" y2="-162.837"/>
				<line fill="none" stroke="#939598" stroke-miterlimit="10" x1="985.747" y1="209.613" x2="610.471" y2="-165.66"/>
				<line fill="none" stroke="#939598" stroke-miterlimit="10" x1="997.036" y1="206.791" x2="621.76" y2="-168.483"/>
				<line fill="none" stroke="#939598" stroke-miterlimit="10" x1="1008.325" y1="203.968" x2="633.049" y2="-171.306"/>
				<line fill="none" stroke="#939598" stroke-miterlimit="10" x1="1019.613" y1="201.145" x2="644.337" y2="-174.129"/>
				<line fill="none" stroke="#939598" stroke-miterlimit="10" x1="1030.902" y1="198.321" x2="655.626" y2="-176.952"/>
				<line fill="none" stroke="#939598" stroke-miterlimit="10" x1="1042.191" y1="195.498" x2="666.915" y2="-179.775"/>
				<line fill="none" stroke="#939598" stroke-miterlimit="10" x1="1053.48" y1="192.676" x2="678.204" y2="-182.599"/>
				<line fill="none" stroke="#939598" stroke-miterlimit="10" x1="1064.77" y1="189.853" x2="689.492" y2="-185.421"/>
				<line fill="none" stroke="#939598" stroke-miterlimit="10" x1="1076.058" y1="187.029" x2="700.781" y2="-188.245"/>
				<line fill="none" stroke="#939598" stroke-miterlimit="10" x1="1087.347" y1="184.206" x2="712.07" y2="-191.067"/>
				<line fill="none" stroke="#939598" stroke-miterlimit="10" x1="1098.635" y1="181.383" x2="723.358" y2="-193.891"/>
				<line fill="none" stroke="#939598" stroke-miterlimit="10" x1="1109.924" y1="178.561" x2="734.647" y2="-196.714"/>
				<line fill="none" stroke="#939598" stroke-miterlimit="10" x1="1121.213" y1="175.737" x2="745.936" y2="-199.537"/>
				<line fill="none" stroke="#939598" stroke-miterlimit="10" x1="1132.501" y1="172.914" x2="757.225" y2="-202.36"/>
				<line fill="none" stroke="#939598" stroke-miterlimit="10" x1="1143.79" y1="170.091" x2="768.514" y2="-205.183"/>
				<line fill="none" stroke="#939598" stroke-miterlimit="10" x1="1155.079" y1="167.268" x2="779.803" y2="-208.006"/>
				<line fill="none" stroke="#939598" stroke-miterlimit="10" x1="1166.367" y1="164.445" x2="791.091" y2="-210.829"/>
				<line fill="none" stroke="#939598" stroke-miterlimit="10" x1="1177.656" y1="161.622" x2="802.38" y2="-213.652"/>
				<line fill="none" stroke="#939598" stroke-miterlimit="10" x1="1188.945" y1="158.799" x2="813.669" y2="-216.475"/>
				<line fill="none" stroke="#939598" stroke-miterlimit="10" x1="1200.233" y1="155.977" x2="824.957" y2="-219.298"/>
				<line fill="none" stroke="#939598" stroke-miterlimit="10" x1="1211.522" y1="153.153" x2="836.246" y2="-222.122"/>
				<line fill="none" stroke="#939598" stroke-miterlimit="10" x1="1222.812" y1="150.33" x2="847.535" y2="-224.944"/>
				<line fill="none" stroke="#939598" stroke-miterlimit="10" x1="1234.1" y1="147.507" x2="858.824" y2="-227.768"/>
				<line fill="none" stroke="#939598" stroke-miterlimit="10" x1="1245.389" y1="144.684" x2="870.112" y2="-230.591"/>
				<line fill="none" stroke="#939598" stroke-miterlimit="10" x1="1256.678" y1="141.861" x2="881.401" y2="-233.414"/>
				<line fill="none" stroke="#939598" stroke-miterlimit="10" x1="1267.967" y1="139.038" x2="892.689" y2="-236.236"/>
				<line fill="none" stroke="#939598" stroke-miterlimit="10" x1="1279.255" y1="136.215" x2="903.979" y2="-239.06"/>
				<line fill="none" stroke="#939598" stroke-miterlimit="10" x1="1290.544" y1="133.392" x2="915.268" y2="-241.883"/>
				<line fill="none" stroke="#939598" stroke-miterlimit="10" x1="1301.833" y1="130.568" x2="926.557" y2="-244.706"/>
				<line fill="none" stroke="#939598" stroke-miterlimit="10" x1="1313.121" y1="127.746" x2="937.845" y2="-247.529"/>
				<line fill="none" stroke="#939598" stroke-miterlimit="10" x1="1324.41" y1="124.923" x2="949.134" y2="-250.352"/>
				<line fill="none" stroke="#939598" stroke-miterlimit="10" x1="1335.699" y1="122.1" x2="960.423" y2="-253.175"/>
				<line fill="none" stroke="#939598" stroke-miterlimit="10" x1="1346.987" y1="119.276" x2="971.711" y2="-255.998"/>
				<line fill="none" stroke="#939598" stroke-miterlimit="10" x1="1358.276" y1="116.453" x2="983" y2="-258.821"/>
				<line fill="none" stroke="#939598" stroke-miterlimit="10" x1="1369.565" y1="113.631" x2="994.289" y2="-261.644"/>
				<line fill="none" stroke="#939598" stroke-miterlimit="10" x1="1380.854" y1="110.808" x2="1005.578" y2="-264.467"/>
				<line fill="none" stroke="#939598" stroke-miterlimit="10" x1="1392.143" y1="107.984" x2="1016.866" y2="-267.291"/>
				<line fill="none" stroke="#939598" stroke-miterlimit="10" x1="1403.432" y1="105.162" x2="1028.155" y2="-270.113"/>
				<line fill="none" stroke="#939598" stroke-miterlimit="10" x1="1414.72" y1="102.339" x2="1039.443" y2="-272.937"/>
				<line fill="none" stroke="#939598" stroke-miterlimit="10" x1="1426.009" y1="99.516" x2="1050.732" y2="-275.76"/>
				<line fill="none" stroke="#939598" stroke-miterlimit="10" x1="1437.298" y1="96.692" x2="1062.021" y2="-278.583"/>
				<line fill="none" stroke="#939598" stroke-miterlimit="10" x1="1448.586" y1="93.869" x2="1073.31" y2="-281.406"/>
				<line fill="none" stroke="#939598" stroke-miterlimit="10" x1="1459.875" y1="91.047" x2="1084.599" y2="-284.229"/>
				<line fill="none" stroke="#939598" stroke-miterlimit="10" x1="1471.164" y1="88.224" x2="1095.888" y2="-287.052"/>
				<line fill="none" stroke="#939598" stroke-miterlimit="10" x1="1482.453" y1="85.4" x2="1107.176" y2="-289.875"/>
				<line fill="none" stroke="#939598" stroke-miterlimit="10" x1="1493.741" y1="82.577" x2="1118.465" y2="-292.698"/>
				<line fill="none" stroke="#939598" stroke-miterlimit="10" x1="1505.03" y1="79.754" x2="1129.754" y2="-295.521"/>
				<line fill="none" stroke="#939598" stroke-miterlimit="10" x1="1516.319" y1="76.932" x2="1141.043" y2="-298.344"/>
				<line fill="none" stroke="#939598" stroke-miterlimit="10" x1="1527.607" y1="74.108" x2="1152.331" y2="-301.167"/>
				<line fill="none" stroke="#939598" stroke-miterlimit="10" x1="1538.896" y1="71.285" x2="1163.62" y2="-303.99"/>
				<line fill="none" stroke="#939598" stroke-miterlimit="10" x1="1550.186" y1="68.462" x2="1174.909" y2="-306.813"/>
				<line fill="none" stroke="#939598" stroke-miterlimit="10" x1="1561.474" y1="65.639" x2="1186.197" y2="-309.637"/>
				<line fill="none" stroke="#939598" stroke-miterlimit="10" x1="1572.763" y1="62.816" x2="1197.486" y2="-312.459"/>
				<line fill="none" stroke="#939598" stroke-miterlimit="10" x1="1584.052" y1="59.993" x2="1208.775" y2="-315.282"/>
				<line fill="none" stroke="#939598" stroke-miterlimit="10" x1="1595.34" y1="57.17" x2="1220.063" y2="-318.105"/>
				<line fill="none" stroke="#939598" stroke-miterlimit="10" x1="1606.629" y1="54.348" x2="1231.353" y2="-320.929"/>
				<line fill="none" stroke="#939598" stroke-miterlimit="10" x1="1617.918" y1="51.524" x2="1242.641" y2="-323.751"/>
				<line fill="none" stroke="#939598" stroke-miterlimit="10" x1="1629.206" y1="48.701" x2="1253.93" y2="-326.575"/>
				<line fill="none" stroke="#939598" stroke-miterlimit="10" x1="1640.495" y1="45.878" x2="1265.219" y2="-329.398"/>
				<line fill="none" stroke="#939598" stroke-miterlimit="10" x1="1651.784" y1="43.055" x2="1276.508" y2="-332.221"/>
				<line fill="none" stroke="#939598" stroke-miterlimit="10" x1="1663.072" y1="40.232" x2="1287.797" y2="-335.044"/>
				<line fill="none" stroke="#939598" stroke-miterlimit="10" x1="1674.361" y1="37.409" x2="1299.085" y2="-337.867"/>
				<line fill="none" stroke="#939598" stroke-miterlimit="10" x1="1685.65" y1="34.586" x2="1310.374" y2="-340.69"/>
				<line fill="none" stroke="#939598" stroke-miterlimit="10" x1="1696.939" y1="31.763" x2="1321.662" y2="-343.513"/>
				<line fill="none" stroke="#939598" stroke-miterlimit="10" x1="1708.228" y1="28.939" x2="1332.951" y2="-346.336"/>
				<line fill="none" stroke="#939598" stroke-miterlimit="10" x1="1719.517" y1="26.117" x2="1344.24" y2="-349.159"/>
				<line fill="none" stroke="#939598" stroke-miterlimit="10" x1="1730.806" y1="23.294" x2="1355.529" y2="-351.982"/>
				<line fill="none" stroke="#939598" stroke-miterlimit="10" x1="1742.094" y1="20.471" x2="1366.818" y2="-354.806"/>
				<line fill="none" stroke="#939598" stroke-miterlimit="10" x1="1753.383" y1="17.647" x2="1378.106" y2="-357.629"/>
				<line fill="none" stroke="#939598" stroke-miterlimit="10" x1="1764.672" y1="14.824" x2="1389.396" y2="-360.451"/>
				<line fill="none" stroke="#939598" stroke-miterlimit="10" x1="1775.961" y1="12.002" x2="1400.685" y2="-363.274"/>
				<line fill="none" stroke="#939598" stroke-miterlimit="10" x1="1787.248" y1="9.179" x2="1411.973" y2="-366.098"/>
				<line fill="none" stroke="#939598" stroke-miterlimit="10" x1="1798.537" y1="6.355" x2="1423.262" y2="-368.921"/>
				<line fill="none" stroke="#939598" stroke-miterlimit="10" x1="1809.826" y1="3.533" x2="1434.55" y2="-371.744"/>
				<line fill="none" stroke="#939598" stroke-miterlimit="10" x1="1821.115" y1="0.71" x2="1445.839" y2="-374.567"/>
				<line fill="none" stroke="#939598" stroke-miterlimit="10" x1="1832.403" y1="-2.113" x2="1457.128" y2="-377.39"/>
				<line fill="none" stroke="#939598" stroke-miterlimit="10" x1="1843.692" y1="-4.937" x2="1468.416" y2="-380.213"/>
				<line fill="none" stroke="#939598" stroke-miterlimit="10" x1="1854.981" y1="-7.76" x2="1479.705" y2="-383.036"/>
				<line fill="none" stroke="#939598" stroke-miterlimit="10" x1="1866.271" y1="-10.582" x2="1490.994" y2="-385.859"/>
				<line fill="none" stroke="#939598" stroke-miterlimit="10" x1="1877.559" y1="-13.405" x2="1502.282" y2="-388.682"/>
				<line fill="none" stroke="#939598" stroke-miterlimit="10" x1="1888.848" y1="-16.229" x2="1513.571" y2="-391.505"/>
			</g>
		</g>
	</g>
	<g id="Layer_1">
		<polygon fill="#64C4AF" points="1264,136 1264,0 314.75,116.282 314.75,136 		"/>
		<polygon fill="#A71E31" points="0,135.999 0,0 409.667,0 547,136 		"/>
	</g>
</g>
</svg>
