<?xml version="1.0" encoding="utf-8"?>
<!-- Generator: Adobe Illustrator 16.0.4, SVG Export Plug-In . SVG Version: 6.00 Build 0)  -->
<!DOCTYPE svg PUBLIC "-//W3C//DTD SVG 1.1//EN" "http://www.w3.org/Graphics/SVG/1.1/DTD/svg11.dtd">
<svg version="1.1" xmlns="http://www.w3.org/2000/svg" xmlns:xlink="http://www.w3.org/1999/xlink" x="0px" y="0px" width="576px"
	 height="144px" viewBox="0 0 576 144" enable-background="new 0 0 576 144" xml:space="preserve">
<g id="Shapes">
</g>
<g id="Layer_1">
	<g>
		<defs>
			<rect id="SVGID_1_" width="576" height="144"/>
		</defs>
		<clipPath id="SVGID_2_">
			<use xlink:href="#SVGID_1_"  overflow="visible"/>
		</clipPath>
		<rect x="0" clip-path="url(#SVGID_2_)" fill="#FFFFFF" width="576" height="144"/>
		<g clip-path="url(#SVGID_2_)">
			<g>
				<line fill="none" stroke="#939598" stroke-miterlimit="10" x1="-149.694" y1="342.118" x2="-399.036" y2="92.779"/>
				<line fill="none" stroke="#939598" stroke-miterlimit="10" x1="-142.192" y1="340.242" x2="-391.534" y2="90.903"/>
				<line fill="none" stroke="#939598" stroke-miterlimit="10" x1="-134.692" y1="338.367" x2="-384.034" y2="89.027"/>
				<line fill="none" stroke="#939598" stroke-miterlimit="10" x1="-127.191" y1="336.491" x2="-376.533" y2="87.152"/>
				<line fill="none" stroke="#939598" stroke-miterlimit="10" x1="-119.691" y1="334.615" x2="-369.033" y2="85.276"/>
				<line fill="none" stroke="#939598" stroke-miterlimit="10" x1="-112.19" y1="332.739" x2="-361.532" y2="83.4"/>
				<line fill="none" stroke="#939598" stroke-miterlimit="10" x1="-104.69" y1="330.863" x2="-354.031" y2="81.524"/>
				<line fill="none" stroke="#939598" stroke-miterlimit="10" x1="-97.189" y1="328.988" x2="-346.531" y2="79.648"/>
				<line fill="none" stroke="#939598" stroke-miterlimit="10" x1="-89.688" y1="327.112" x2="-339.03" y2="77.773"/>
				<line fill="none" stroke="#939598" stroke-miterlimit="10" x1="-82.188" y1="325.236" x2="-331.53" y2="75.897"/>
				<line fill="none" stroke="#939598" stroke-miterlimit="10" x1="-74.688" y1="323.361" x2="-324.029" y2="74.021"/>
				<line fill="none" stroke="#939598" stroke-miterlimit="10" x1="-67.187" y1="321.485" x2="-316.529" y2="72.146"/>
				<line fill="none" stroke="#939598" stroke-miterlimit="10" x1="-59.687" y1="319.609" x2="-309.029" y2="70.271"/>
				<line fill="none" stroke="#939598" stroke-miterlimit="10" x1="-52.186" y1="317.734" x2="-301.528" y2="68.395"/>
				<line fill="none" stroke="#939598" stroke-miterlimit="10" x1="-44.686" y1="315.857" x2="-294.027" y2="66.519"/>
				<line fill="none" stroke="#939598" stroke-miterlimit="10" x1="-37.185" y1="313.982" x2="-286.527" y2="64.643"/>
				<line fill="none" stroke="#939598" stroke-miterlimit="10" x1="-29.685" y1="312.107" x2="-279.026" y2="62.768"/>
				<line fill="none" stroke="#939598" stroke-miterlimit="10" x1="-22.184" y1="310.23" x2="-271.526" y2="60.892"/>
				<line fill="none" stroke="#939598" stroke-miterlimit="10" x1="-14.684" y1="308.355" x2="-264.025" y2="59.016"/>
				<line fill="none" stroke="#939598" stroke-miterlimit="10" x1="-7.184" y1="306.479" x2="-256.525" y2="57.14"/>
				<line fill="none" stroke="#939598" stroke-miterlimit="10" x1="0.317" y1="304.604" x2="-249.024" y2="55.265"/>
				<line fill="none" stroke="#939598" stroke-miterlimit="10" x1="7.818" y1="302.729" x2="-241.523" y2="53.389"/>
				<line fill="none" stroke="#939598" stroke-miterlimit="10" x1="15.318" y1="300.853" x2="-234.023" y2="51.513"/>
				<line fill="none" stroke="#939598" stroke-miterlimit="10" x1="22.819" y1="298.977" x2="-226.523" y2="49.637"/>
				<line fill="none" stroke="#939598" stroke-miterlimit="10" x1="30.319" y1="297.102" x2="-219.022" y2="47.762"/>
				<line fill="none" stroke="#939598" stroke-miterlimit="10" x1="37.82" y1="295.226" x2="-211.521" y2="45.886"/>
				<line fill="none" stroke="#939598" stroke-miterlimit="10" x1="45.32" y1="293.35" x2="-204.021" y2="44.01"/>
				<line fill="none" stroke="#939598" stroke-miterlimit="10" x1="52.821" y1="291.474" x2="-196.521" y2="42.135"/>
				<line fill="none" stroke="#939598" stroke-miterlimit="10" x1="60.322" y1="289.598" x2="-189.02" y2="40.259"/>
				<line fill="none" stroke="#939598" stroke-miterlimit="10" x1="67.822" y1="287.723" x2="-181.52" y2="38.383"/>
				<line fill="none" stroke="#939598" stroke-miterlimit="10" x1="75.323" y1="285.847" x2="-174.02" y2="36.508"/>
				<line fill="none" stroke="#939598" stroke-miterlimit="10" x1="82.823" y1="283.971" x2="-166.519" y2="34.632"/>
				<line fill="none" stroke="#939598" stroke-miterlimit="10" x1="90.323" y1="282.096" x2="-159.018" y2="32.756"/>
				<line fill="none" stroke="#939598" stroke-miterlimit="10" x1="97.824" y1="280.22" x2="-151.517" y2="30.88"/>
				<line fill="none" stroke="#939598" stroke-miterlimit="10" x1="105.324" y1="278.344" x2="-144.018" y2="29.005"/>
				<line fill="none" stroke="#939598" stroke-miterlimit="10" x1="112.824" y1="276.468" x2="-136.517" y2="27.129"/>
				<line fill="none" stroke="#939598" stroke-miterlimit="10" x1="120.325" y1="274.593" x2="-129.016" y2="25.253"/>
				<line fill="none" stroke="#939598" stroke-miterlimit="10" x1="127.826" y1="272.717" x2="-121.515" y2="23.378"/>
				<line fill="none" stroke="#939598" stroke-miterlimit="10" x1="135.326" y1="270.842" x2="-114.015" y2="21.502"/>
				<line fill="none" stroke="#939598" stroke-miterlimit="10" x1="142.827" y1="268.965" x2="-106.515" y2="19.626"/>
				<line fill="none" stroke="#939598" stroke-miterlimit="10" x1="150.327" y1="267.09" x2="-99.014" y2="17.75"/>
				<line fill="none" stroke="#939598" stroke-miterlimit="10" x1="157.828" y1="265.215" x2="-91.513" y2="15.875"/>
				<line fill="none" stroke="#939598" stroke-miterlimit="10" x1="165.328" y1="263.339" x2="-84.013" y2="13.999"/>
				<line fill="none" stroke="#939598" stroke-miterlimit="10" x1="172.829" y1="261.463" x2="-76.513" y2="12.123"/>
				<line fill="none" stroke="#939598" stroke-miterlimit="10" x1="180.33" y1="259.587" x2="-69.012" y2="10.247"/>
				<line fill="none" stroke="#939598" stroke-miterlimit="10" x1="187.83" y1="257.712" x2="-61.511" y2="8.372"/>
				<line fill="none" stroke="#939598" stroke-miterlimit="10" x1="195.331" y1="255.836" x2="-54.011" y2="6.496"/>
				<line fill="none" stroke="#939598" stroke-miterlimit="10" x1="202.831" y1="253.96" x2="-46.511" y2="4.62"/>
				<line fill="none" stroke="#939598" stroke-miterlimit="10" x1="210.332" y1="252.084" x2="-39.01" y2="2.745"/>
				<line fill="none" stroke="#939598" stroke-miterlimit="10" x1="217.832" y1="250.209" x2="-31.509" y2="0.869"/>
				<line fill="none" stroke="#939598" stroke-miterlimit="10" x1="225.333" y1="248.333" x2="-24.009" y2="-1.007"/>
				<line fill="none" stroke="#939598" stroke-miterlimit="10" x1="232.833" y1="246.457" x2="-16.508" y2="-2.883"/>
				<line fill="none" stroke="#939598" stroke-miterlimit="10" x1="240.334" y1="244.582" x2="-9.008" y2="-4.758"/>
				<line fill="none" stroke="#939598" stroke-miterlimit="10" x1="247.834" y1="242.706" x2="-1.507" y2="-6.634"/>
				<line fill="none" stroke="#939598" stroke-miterlimit="10" x1="255.335" y1="240.83" x2="5.993" y2="-8.509"/>
				<line fill="none" stroke="#939598" stroke-miterlimit="10" x1="262.835" y1="238.954" x2="13.494" y2="-10.386"/>
				<line fill="none" stroke="#939598" stroke-miterlimit="10" x1="270.336" y1="237.079" x2="20.994" y2="-12.261"/>
				<line fill="none" stroke="#939598" stroke-miterlimit="10" x1="277.836" y1="235.203" x2="28.495" y2="-14.137"/>
				<line fill="none" stroke="#939598" stroke-miterlimit="10" x1="285.337" y1="233.328" x2="35.995" y2="-16.012"/>
				<line fill="none" stroke="#939598" stroke-miterlimit="10" x1="292.837" y1="231.451" x2="43.496" y2="-17.889"/>
				<line fill="none" stroke="#939598" stroke-miterlimit="10" x1="300.338" y1="229.576" x2="50.997" y2="-19.764"/>
				<line fill="none" stroke="#939598" stroke-miterlimit="10" x1="307.839" y1="227.7" x2="58.497" y2="-21.639"/>
				<line fill="none" stroke="#939598" stroke-miterlimit="10" x1="315.339" y1="225.824" x2="65.997" y2="-23.515"/>
				<line fill="none" stroke="#939598" stroke-miterlimit="10" x1="322.839" y1="223.948" x2="73.498" y2="-25.392"/>
				<line fill="none" stroke="#939598" stroke-miterlimit="10" x1="330.34" y1="222.073" x2="80.999" y2="-27.267"/>
				<line fill="none" stroke="#939598" stroke-miterlimit="10" x1="337.841" y1="220.197" x2="88.499" y2="-29.142"/>
				<line fill="none" stroke="#939598" stroke-miterlimit="10" x1="345.341" y1="218.321" x2="96" y2="-31.019"/>
				<line fill="none" stroke="#939598" stroke-miterlimit="10" x1="352.842" y1="216.445" x2="103.5" y2="-32.895"/>
				<line fill="none" stroke="#939598" stroke-miterlimit="10" x1="360.342" y1="214.57" x2="111" y2="-34.77"/>
				<line fill="none" stroke="#939598" stroke-miterlimit="10" x1="367.843" y1="212.695" x2="118.501" y2="-36.645"/>
				<line fill="none" stroke="#939598" stroke-miterlimit="10" x1="375.344" y1="210.818" x2="126.001" y2="-38.521"/>
				<line fill="none" stroke="#939598" stroke-miterlimit="10" x1="382.844" y1="208.943" x2="133.502" y2="-40.397"/>
				<line fill="none" stroke="#939598" stroke-miterlimit="10" x1="390.344" y1="207.067" x2="141.002" y2="-42.272"/>
				<line fill="none" stroke="#939598" stroke-miterlimit="10" x1="397.845" y1="205.192" x2="148.503" y2="-44.147"/>
				<line fill="none" stroke="#939598" stroke-miterlimit="10" x1="405.345" y1="203.316" x2="156.004" y2="-46.024"/>
				<line fill="none" stroke="#939598" stroke-miterlimit="10" x1="412.845" y1="201.44" x2="163.504" y2="-47.9"/>
				<line fill="none" stroke="#939598" stroke-miterlimit="10" x1="420.346" y1="199.564" x2="171.005" y2="-49.775"/>
				<line fill="none" stroke="#939598" stroke-miterlimit="10" x1="427.847" y1="197.689" x2="178.505" y2="-51.651"/>
				<line fill="none" stroke="#939598" stroke-miterlimit="10" x1="435.347" y1="195.813" x2="186.006" y2="-53.526"/>
				<line fill="none" stroke="#939598" stroke-miterlimit="10" x1="442.848" y1="193.938" x2="193.506" y2="-55.402"/>
				<line fill="none" stroke="#939598" stroke-miterlimit="10" x1="450.348" y1="192.062" x2="201.007" y2="-57.278"/>
				<line fill="none" stroke="#939598" stroke-miterlimit="10" x1="457.849" y1="190.187" x2="208.507" y2="-59.153"/>
				<line fill="none" stroke="#939598" stroke-miterlimit="10" x1="465.349" y1="188.311" x2="216.008" y2="-61.03"/>
				<line fill="none" stroke="#939598" stroke-miterlimit="10" x1="472.85" y1="186.436" x2="223.508" y2="-62.905"/>
				<line fill="none" stroke="#939598" stroke-miterlimit="10" x1="480.35" y1="184.56" x2="231.009" y2="-64.781"/>
				<line fill="none" stroke="#939598" stroke-miterlimit="10" x1="487.85" y1="182.684" x2="238.509" y2="-66.656"/>
				<line fill="none" stroke="#939598" stroke-miterlimit="10" x1="495.351" y1="180.809" x2="246.01" y2="-68.532"/>
				<line fill="none" stroke="#939598" stroke-miterlimit="10" x1="502.852" y1="178.932" x2="253.51" y2="-70.408"/>
				<line fill="none" stroke="#939598" stroke-miterlimit="10" x1="510.352" y1="177.057" x2="261.011" y2="-72.284"/>
				<line fill="none" stroke="#939598" stroke-miterlimit="10" x1="517.852" y1="175.182" x2="268.511" y2="-74.159"/>
				<line fill="none" stroke="#939598" stroke-miterlimit="10" x1="525.353" y1="173.305" x2="276.012" y2="-76.035"/>
				<line fill="none" stroke="#939598" stroke-miterlimit="10" x1="532.854" y1="171.43" x2="283.512" y2="-77.911"/>
				<line fill="none" stroke="#939598" stroke-miterlimit="10" x1="540.354" y1="169.554" x2="291.012" y2="-79.786"/>
				<line fill="none" stroke="#939598" stroke-miterlimit="10" x1="547.854" y1="167.678" x2="298.513" y2="-81.662"/>
				<line fill="none" stroke="#939598" stroke-miterlimit="10" x1="555.354" y1="165.803" x2="306.014" y2="-83.538"/>
				<line fill="none" stroke="#939598" stroke-miterlimit="10" x1="562.855" y1="163.927" x2="313.514" y2="-85.414"/>
				<line fill="none" stroke="#939598" stroke-miterlimit="10" x1="570.355" y1="162.051" x2="321.014" y2="-87.289"/>
				<line fill="none" stroke="#939598" stroke-miterlimit="10" x1="577.856" y1="160.175" x2="328.515" y2="-89.165"/>
				<line fill="none" stroke="#939598" stroke-miterlimit="10" x1="585.356" y1="158.3" x2="336.016" y2="-91.041"/>
				<line fill="none" stroke="#939598" stroke-miterlimit="10" x1="592.857" y1="156.424" x2="343.516" y2="-92.917"/>
				<line fill="none" stroke="#939598" stroke-miterlimit="10" x1="600.357" y1="154.548" x2="351.016" y2="-94.792"/>
				<line fill="none" stroke="#939598" stroke-miterlimit="10" x1="607.858" y1="152.673" x2="358.517" y2="-96.668"/>
				<line fill="none" stroke="#939598" stroke-miterlimit="10" x1="615.358" y1="150.797" x2="366.018" y2="-98.543"/>
				<line fill="none" stroke="#939598" stroke-miterlimit="10" x1="622.859" y1="148.921" x2="373.518" y2="-100.419"/>
				<line fill="none" stroke="#939598" stroke-miterlimit="10" x1="630.359" y1="147.046" x2="381.018" y2="-102.295"/>
				<line fill="none" stroke="#939598" stroke-miterlimit="10" x1="637.859" y1="145.17" x2="388.519" y2="-104.171"/>
				<line fill="none" stroke="#939598" stroke-miterlimit="10" x1="645.36" y1="143.294" x2="396.02" y2="-106.046"/>
				<line fill="none" stroke="#939598" stroke-miterlimit="10" x1="652.861" y1="141.418" x2="403.52" y2="-107.922"/>
				<line fill="none" stroke="#939598" stroke-miterlimit="10" x1="660.361" y1="139.543" x2="411.02" y2="-109.798"/>
				<line fill="none" stroke="#939598" stroke-miterlimit="10" x1="667.861" y1="137.667" x2="418.521" y2="-111.673"/>
				<line fill="none" stroke="#939598" stroke-miterlimit="10" x1="675.362" y1="135.791" x2="426.021" y2="-113.549"/>
				<line fill="none" stroke="#939598" stroke-miterlimit="10" x1="682.863" y1="133.916" x2="433.521" y2="-115.425"/>
				<line fill="none" stroke="#939598" stroke-miterlimit="10" x1="690.363" y1="132.04" x2="441.021" y2="-117.301"/>
				<line fill="none" stroke="#939598" stroke-miterlimit="10" x1="697.863" y1="130.164" x2="448.522" y2="-119.176"/>
				<line fill="none" stroke="#939598" stroke-miterlimit="10" x1="705.364" y1="128.289" x2="456.023" y2="-121.052"/>
				<line fill="none" stroke="#939598" stroke-miterlimit="10" x1="712.864" y1="126.413" x2="463.523" y2="-122.928"/>
				<line fill="none" stroke="#939598" stroke-miterlimit="10" x1="720.365" y1="124.537" x2="471.023" y2="-124.804"/>
				<line fill="none" stroke="#939598" stroke-miterlimit="10" x1="727.865" y1="122.661" x2="478.524" y2="-126.679"/>
				<line fill="none" stroke="#939598" stroke-miterlimit="10" x1="735.366" y1="120.786" x2="486.025" y2="-128.555"/>
				<line fill="none" stroke="#939598" stroke-miterlimit="10" x1="742.866" y1="118.91" x2="493.525" y2="-130.431"/>
				<line fill="none" stroke="#939598" stroke-miterlimit="10" x1="750.367" y1="117.034" x2="501.025" y2="-132.306"/>
				<line fill="none" stroke="#939598" stroke-miterlimit="10" x1="757.867" y1="115.159" x2="508.526" y2="-134.182"/>
				<line fill="none" stroke="#939598" stroke-miterlimit="10" x1="765.368" y1="113.283" x2="516.027" y2="-136.058"/>
				<line fill="none" stroke="#939598" stroke-miterlimit="10" x1="772.868" y1="111.407" x2="523.527" y2="-137.934"/>
				<line fill="none" stroke="#939598" stroke-miterlimit="10" x1="780.369" y1="109.532" x2="531.027" y2="-139.809"/>
				<line fill="none" stroke="#939598" stroke-miterlimit="10" x1="787.869" y1="107.656" x2="538.528" y2="-141.685"/>
				<line fill="none" stroke="#939598" stroke-miterlimit="10" x1="795.37" y1="105.78" x2="546.029" y2="-143.561"/>
				<line fill="none" stroke="#939598" stroke-miterlimit="10" x1="802.87" y1="103.905" x2="553.529" y2="-145.437"/>
				<line fill="none" stroke="#939598" stroke-miterlimit="10" x1="810.371" y1="102.029" x2="561.029" y2="-147.312"/>
				<line fill="none" stroke="#939598" stroke-miterlimit="10" x1="817.871" y1="100.153" x2="568.53" y2="-149.188"/>
				<line fill="none" stroke="#939598" stroke-miterlimit="10" x1="825.371" y1="98.277" x2="576.031" y2="-151.063"/>
				<line fill="none" stroke="#939598" stroke-miterlimit="10" x1="832.872" y1="96.402" x2="583.531" y2="-152.939"/>
				<line fill="none" stroke="#939598" stroke-miterlimit="10" x1="840.372" y1="94.526" x2="591.031" y2="-154.815"/>
				<line fill="none" stroke="#939598" stroke-miterlimit="10" x1="847.873" y1="92.65" x2="598.532" y2="-156.69"/>
				<line fill="none" stroke="#939598" stroke-miterlimit="10" x1="855.374" y1="90.775" x2="606.033" y2="-158.566"/>
				<line fill="none" stroke="#939598" stroke-miterlimit="10" x1="862.874" y1="88.899" x2="613.533" y2="-160.442"/>
				<line fill="none" stroke="#939598" stroke-miterlimit="10" x1="870.375" y1="87.023" x2="621.033" y2="-162.317"/>
				<line fill="none" stroke="#939598" stroke-miterlimit="10" x1="877.875" y1="85.148" x2="628.534" y2="-164.193"/>
				<line fill="none" stroke="#939598" stroke-miterlimit="10" x1="885.376" y1="83.272" x2="636.035" y2="-166.069"/>
				<line fill="none" stroke="#939598" stroke-miterlimit="10" x1="892.876" y1="81.396" x2="643.535" y2="-167.945"/>
				<line fill="none" stroke="#939598" stroke-miterlimit="10" x1="900.377" y1="79.521" x2="651.035" y2="-169.82"/>
				<line fill="none" stroke="#939598" stroke-miterlimit="10" x1="907.877" y1="77.646" x2="658.536" y2="-171.696"/>
				<line fill="none" stroke="#939598" stroke-miterlimit="10" x1="915.378" y1="75.77" x2="666.037" y2="-173.572"/>
				<line fill="none" stroke="#939598" stroke-miterlimit="10" x1="922.878" y1="73.894" x2="673.537" y2="-175.448"/>
				<line fill="none" stroke="#939598" stroke-miterlimit="10" x1="930.379" y1="72.018" x2="681.037" y2="-177.323"/>
				<line fill="none" stroke="#939598" stroke-miterlimit="10" x1="937.879" y1="70.142" x2="688.538" y2="-179.199"/>
				<line fill="none" stroke="#939598" stroke-miterlimit="10" x1="945.38" y1="68.267" x2="696.038" y2="-181.075"/>
				<line fill="none" stroke="#939598" stroke-miterlimit="10" x1="952.88" y1="66.391" x2="703.539" y2="-182.95"/>
				<line fill="none" stroke="#939598" stroke-miterlimit="10" x1="960.381" y1="64.515" x2="711.04" y2="-184.826"/>
				<line fill="none" stroke="#939598" stroke-miterlimit="10" x1="967.881" y1="62.64" x2="718.54" y2="-186.702"/>
				<line fill="none" stroke="#939598" stroke-miterlimit="10" x1="975.382" y1="60.764" x2="726.041" y2="-188.578"/>
				<line fill="none" stroke="#939598" stroke-miterlimit="10" x1="982.882" y1="58.888" x2="733.541" y2="-190.453"/>
			</g>
		</g>
	</g>
</g>
<g id="trapezoids">
	<polygon fill="#A71E31" points="0,144 0,0 52.667,0 196.833,144 	"/>
	<polygon fill="#64C4AF" points="576,144 576,0 182.658,129.842 196.833,144 	"/>
</g>
</svg>
