<?xml version="1.0" encoding="utf-8"?>
<!-- Generator: Adobe Illustrator 16.0.0, SVG Export Plug-In . SVG Version: 6.00 Build 0)  -->
<!DOCTYPE svg PUBLIC "-//W3C//DTD SVG 1.1//EN" "http://www.w3.org/Graphics/SVG/1.1/DTD/svg11.dtd">
<svg version="1.1" id="Layer_1" xmlns="http://www.w3.org/2000/svg" xmlns:xlink="http://www.w3.org/1999/xlink" x="0px" y="0px"
	 width="700px" height="300px" viewBox="0 0 700 300" enable-background="new 0 0 700 300" xml:space="preserve">
<rect fill="#FFFFFF" width="700" height="300"/>
<g>
	<g>
		<defs>
			<rect id="SVGID_1_" width="700" height="300"/>
		</defs>
		<clipPath id="SVGID_2_">
			<use xlink:href="#SVGID_1_"  overflow="visible"/>
		</clipPath>
		<g clip-path="url(#SVGID_2_)">
			<g>
				<line fill="none" stroke="#939598" stroke-miterlimit="10" x1="102.032" y1="904.521" x2="-105.795" y2="76.718"/>
				<line fill="none" stroke="#939598" stroke-miterlimit="10" x1="108.285" y1="898.292" x2="-99.543" y2="70.49"/>
				<line fill="none" stroke="#939598" stroke-miterlimit="10" x1="114.537" y1="892.068" x2="-93.291" y2="64.263"/>
				<line fill="none" stroke="#939598" stroke-miterlimit="10" x1="120.788" y1="885.842" x2="-87.039" y2="58.037"/>
				<line fill="none" stroke="#939598" stroke-miterlimit="10" x1="127.04" y1="879.611" x2="-80.788" y2="51.807"/>
				<line fill="none" stroke="#939598" stroke-miterlimit="10" x1="133.292" y1="873.385" x2="-74.535" y2="45.583"/>
				<line fill="none" stroke="#939598" stroke-miterlimit="10" x1="139.544" y1="867.158" x2="-68.284" y2="39.353"/>
				<line fill="none" stroke="#939598" stroke-miterlimit="10" x1="145.795" y1="860.932" x2="-62.032" y2="33.128"/>
				<line fill="none" stroke="#939598" stroke-miterlimit="10" x1="152.047" y1="854.702" x2="-55.78" y2="26.898"/>
				<line fill="none" stroke="#939598" stroke-miterlimit="10" x1="158.298" y1="848.475" x2="-49.529" y2="20.671"/>
				<line fill="none" stroke="#939598" stroke-miterlimit="10" x1="164.55" y1="842.248" x2="-43.277" y2="14.443"/>
				<line fill="none" stroke="#939598" stroke-miterlimit="10" x1="170.802" y1="836.021" x2="-37.025" y2="8.22"/>
				<line fill="none" stroke="#939598" stroke-miterlimit="10" x1="177.054" y1="829.795" x2="-30.773" y2="1.99"/>
				<line fill="none" stroke="#939598" stroke-miterlimit="10" x1="183.306" y1="823.565" x2="-24.521" y2="-4.237"/>
				<line fill="none" stroke="#939598" stroke-miterlimit="10" x1="189.557" y1="817.338" x2="-18.27" y2="-10.465"/>
				<line fill="none" stroke="#939598" stroke-miterlimit="10" x1="195.81" y1="811.111" x2="-12.019" y2="-16.692"/>
				<line fill="none" stroke="#939598" stroke-miterlimit="10" x1="202.06" y1="804.885" x2="-5.767" y2="-22.921"/>
				<line fill="none" stroke="#939598" stroke-miterlimit="10" x1="208.312" y1="798.658" x2="0.485" y2="-29.148"/>
				<line fill="none" stroke="#939598" stroke-miterlimit="10" x1="214.564" y1="792.429" x2="6.737" y2="-35.376"/>
				<line fill="none" stroke="#939598" stroke-miterlimit="10" x1="220.815" y1="786.201" x2="12.988" y2="-41.6"/>
				<line fill="none" stroke="#939598" stroke-miterlimit="10" x1="227.067" y1="779.975" x2="19.24" y2="-47.83"/>
				<line fill="none" stroke="#939598" stroke-miterlimit="10" x1="233.319" y1="773.748" x2="25.492" y2="-54.057"/>
				<line fill="none" stroke="#939598" stroke-miterlimit="10" x1="239.571" y1="767.521" x2="31.744" y2="-60.285"/>
				<line fill="none" stroke="#939598" stroke-miterlimit="10" x1="245.823" y1="761.292" x2="37.995" y2="-66.512"/>
				<line fill="none" stroke="#939598" stroke-miterlimit="10" x1="252.075" y1="755.068" x2="44.247" y2="-72.742"/>
				<line fill="none" stroke="#939598" stroke-miterlimit="10" x1="258.326" y1="748.842" x2="50.5" y2="-78.968"/>
				<line fill="none" stroke="#939598" stroke-miterlimit="10" x1="264.578" y1="742.611" x2="56.75" y2="-85.193"/>
				<line fill="none" stroke="#939598" stroke-miterlimit="10" x1="270.83" y1="736.385" x2="63.002" y2="-91.42"/>
				<line fill="none" stroke="#939598" stroke-miterlimit="10" x1="277.082" y1="730.155" x2="69.254" y2="-97.65"/>
				<line fill="none" stroke="#939598" stroke-miterlimit="10" x1="283.333" y1="723.929" x2="75.505" y2="-103.875"/>
				<line fill="none" stroke="#939598" stroke-miterlimit="10" x1="289.584" y1="717.701" x2="81.757" y2="-110.105"/>
				<line fill="none" stroke="#939598" stroke-miterlimit="10" x1="295.836" y1="711.475" x2="88.009" y2="-116.332"/>
				<line fill="none" stroke="#939598" stroke-miterlimit="10" x1="302.088" y1="705.248" x2="94.261" y2="-122.562"/>
				<line fill="none" stroke="#939598" stroke-miterlimit="10" x1="308.339" y1="699.021" x2="100.512" y2="-128.785"/>
				<line fill="none" stroke="#939598" stroke-miterlimit="10" x1="314.592" y1="692.795" x2="106.765" y2="-135.013"/>
				<line fill="none" stroke="#939598" stroke-miterlimit="10" x1="320.844" y1="686.562" x2="113.016" y2="-141.24"/>
				<line fill="none" stroke="#939598" stroke-miterlimit="10" x1="327.096" y1="680.338" x2="119.267" y2="-147.468"/>
				<line fill="none" stroke="#939598" stroke-miterlimit="10" x1="333.346" y1="674.114" x2="125.52" y2="-153.695"/>
				<line fill="none" stroke="#939598" stroke-miterlimit="10" x1="339.598" y1="667.882" x2="131.771" y2="-159.923"/>
				<line fill="none" stroke="#939598" stroke-miterlimit="10" x1="345.851" y1="661.655" x2="138.023" y2="-166.151"/>
				<line fill="none" stroke="#939598" stroke-miterlimit="10" x1="352.103" y1="655.428" x2="144.275" y2="-172.38"/>
				<line fill="none" stroke="#939598" stroke-miterlimit="10" x1="358.354" y1="649.201" x2="150.526" y2="-178.604"/>
				<line fill="none" stroke="#939598" stroke-miterlimit="10" x1="364.606" y1="642.975" x2="156.778" y2="-184.833"/>
				<line fill="none" stroke="#939598" stroke-miterlimit="10" x1="370.857" y1="636.748" x2="163.03" y2="-191.059"/>
				<line fill="none" stroke="#939598" stroke-miterlimit="10" x1="377.107" y1="630.521" x2="169.281" y2="-197.288"/>
				<line fill="none" stroke="#939598" stroke-miterlimit="10" x1="383.36" y1="624.295" x2="175.533" y2="-203.515"/>
				<line fill="none" stroke="#939598" stroke-miterlimit="10" x1="389.612" y1="618.064" x2="181.785" y2="-209.742"/>
				<line fill="none" stroke="#939598" stroke-miterlimit="10" x1="395.864" y1="611.838" x2="188.036" y2="-215.97"/>
				<line fill="none" stroke="#939598" stroke-miterlimit="10" x1="402.115" y1="605.611" x2="194.289" y2="-222.197"/>
				<line fill="none" stroke="#939598" stroke-miterlimit="10" x1="408.368" y1="599.385" x2="200.541" y2="-228.423"/>
				<line fill="none" stroke="#939598" stroke-miterlimit="10" x1="414.619" y1="593.155" x2="206.792" y2="-234.651"/>
				<line fill="none" stroke="#939598" stroke-miterlimit="10" x1="420.87" y1="586.928" x2="213.043" y2="-240.878"/>
				<line fill="none" stroke="#939598" stroke-miterlimit="10" x1="427.122" y1="580.701" x2="219.295" y2="-247.105"/>
				<line fill="none" stroke="#939598" stroke-miterlimit="10" x1="433.374" y1="574.478" x2="225.547" y2="-253.332"/>
				<line fill="none" stroke="#939598" stroke-miterlimit="10" x1="439.626" y1="568.248" x2="231.799" y2="-259.562"/>
				<line fill="none" stroke="#939598" stroke-miterlimit="10" x1="445.878" y1="562.019" x2="238.05" y2="-265.79"/>
				<line fill="none" stroke="#939598" stroke-miterlimit="10" x1="452.13" y1="555.795" x2="244.302" y2="-272.015"/>
				<line fill="none" stroke="#939598" stroke-miterlimit="10" x1="458.382" y1="549.568" x2="250.554" y2="-278.243"/>
				<line fill="none" stroke="#939598" stroke-miterlimit="10" x1="464.634" y1="543.335" x2="256.805" y2="-284.472"/>
				<line fill="none" stroke="#939598" stroke-miterlimit="10" x1="470.884" y1="537.111" x2="263.057" y2="-290.698"/>
				<line fill="none" stroke="#939598" stroke-miterlimit="10" x1="477.137" y1="530.882" x2="269.309" y2="-296.923"/>
				<line fill="none" stroke="#939598" stroke-miterlimit="10" x1="483.388" y1="524.655" x2="275.561" y2="-303.153"/>
				<line fill="none" stroke="#939598" stroke-miterlimit="10" x1="489.64" y1="518.428" x2="281.812" y2="-309.38"/>
				<line fill="none" stroke="#939598" stroke-miterlimit="10" x1="495.892" y1="512.201" x2="288.064" y2="-315.61"/>
				<line fill="none" stroke="#939598" stroke-miterlimit="10" x1="502.144" y1="505.975" x2="294.315" y2="-321.833"/>
				<line fill="none" stroke="#939598" stroke-miterlimit="10" x1="508.396" y1="499.748" x2="300.568" y2="-328.062"/>
				<line fill="none" stroke="#939598" stroke-miterlimit="10" x1="514.646" y1="493.521" x2="306.82" y2="-334.29"/>
				<line fill="none" stroke="#939598" stroke-miterlimit="10" x1="520.898" y1="487.295" x2="313.07" y2="-340.518"/>
				<line fill="none" stroke="#939598" stroke-miterlimit="10" x1="527.149" y1="481.067" x2="319.322" y2="-346.743"/>
				<line fill="none" stroke="#939598" stroke-miterlimit="10" x1="533.401" y1="474.838" x2="325.575" y2="-352.973"/>
				<line fill="none" stroke="#939598" stroke-miterlimit="10" x1="539.653" y1="468.613" x2="331.826" y2="-359.2"/>
				<line fill="none" stroke="#939598" stroke-miterlimit="10" x1="545.905" y1="462.382" x2="338.077" y2="-365.427"/>
				<line fill="none" stroke="#939598" stroke-miterlimit="10" x1="552.157" y1="456.156" x2="344.33" y2="-371.653"/>
				<line fill="none" stroke="#939598" stroke-miterlimit="10" x1="558.409" y1="449.93" x2="350.582" y2="-377.881"/>
				<line fill="none" stroke="#939598" stroke-miterlimit="10" x1="564.66" y1="443.701" x2="356.833" y2="-384.108"/>
				<line fill="none" stroke="#939598" stroke-miterlimit="10" x1="570.912" y1="437.472" x2="363.085" y2="-390.336"/>
				<line fill="none" stroke="#939598" stroke-miterlimit="10" x1="577.164" y1="431.246" x2="369.337" y2="-396.563"/>
				<line fill="none" stroke="#939598" stroke-miterlimit="10" x1="583.415" y1="425.021" x2="375.589" y2="-402.793"/>
				<line fill="none" stroke="#939598" stroke-miterlimit="10" x1="589.668" y1="418.796" x2="381.839" y2="-409.017"/>
				<line fill="none" stroke="#939598" stroke-miterlimit="10" x1="595.92" y1="412.564" x2="388.091" y2="-415.247"/>
				<line fill="none" stroke="#939598" stroke-miterlimit="10" x1="602.172" y1="406.338" x2="394.344" y2="-421.472"/>
				<line fill="none" stroke="#939598" stroke-miterlimit="10" x1="608.422" y1="400.109" x2="400.595" y2="-427.701"/>
				<line fill="none" stroke="#939598" stroke-miterlimit="10" x1="614.675" y1="393.885" x2="406.845" y2="-433.928"/>
				<line fill="none" stroke="#939598" stroke-miterlimit="10" x1="620.926" y1="387.653" x2="413.098" y2="-440.156"/>
				<line fill="none" stroke="#939598" stroke-miterlimit="10" x1="627.177" y1="381.428" x2="419.35" y2="-446.381"/>
				<line fill="none" stroke="#939598" stroke-miterlimit="10" x1="633.429" y1="375.201" x2="425.602" y2="-452.61"/>
				<line fill="none" stroke="#939598" stroke-miterlimit="10" x1="639.682" y1="368.973" x2="431.854" y2="-458.836"/>
				<line fill="none" stroke="#939598" stroke-miterlimit="10" x1="645.931" y1="362.748" x2="438.105" y2="-465.065"/>
				<line fill="none" stroke="#939598" stroke-miterlimit="10" x1="652.184" y1="356.52" x2="444.356" y2="-471.292"/>
				<line fill="none" stroke="#939598" stroke-miterlimit="10" x1="658.436" y1="350.293" x2="450.609" y2="-477.52"/>
				<line fill="none" stroke="#939598" stroke-miterlimit="10" x1="664.688" y1="344.066" x2="456.859" y2="-483.745"/>
				<line fill="none" stroke="#939598" stroke-miterlimit="10" x1="670.939" y1="337.836" x2="463.111" y2="-489.976"/>
				<line fill="none" stroke="#939598" stroke-miterlimit="10" x1="677.19" y1="331.611" x2="469.363" y2="-496.2"/>
				<line fill="none" stroke="#939598" stroke-miterlimit="10" x1="683.442" y1="325.383" x2="475.615" y2="-502.43"/>
				<line fill="none" stroke="#939598" stroke-miterlimit="10" x1="689.693" y1="319.156" x2="481.866" y2="-508.656"/>
				<line fill="none" stroke="#939598" stroke-miterlimit="10" x1="695.945" y1="312.93" x2="488.119" y2="-514.885"/>
				<line fill="none" stroke="#939598" stroke-miterlimit="10" x1="702.198" y1="306.701" x2="494.369" y2="-521.108"/>
				<line fill="none" stroke="#939598" stroke-miterlimit="10" x1="708.451" y1="300.475" x2="500.621" y2="-527.34"/>
				<line fill="none" stroke="#939598" stroke-miterlimit="10" x1="714.702" y1="294.248" x2="506.874" y2="-533.565"/>
				<line fill="none" stroke="#939598" stroke-miterlimit="10" x1="720.953" y1="288.02" x2="513.125" y2="-539.793"/>
				<line fill="none" stroke="#939598" stroke-miterlimit="10" x1="727.205" y1="281.793" x2="519.377" y2="-546.02"/>
				<line fill="none" stroke="#939598" stroke-miterlimit="10" x1="733.456" y1="275.566" x2="525.629" y2="-552.248"/>
				<line fill="none" stroke="#939598" stroke-miterlimit="10" x1="739.707" y1="269.338" x2="531.881" y2="-558.475"/>
				<line fill="none" stroke="#939598" stroke-miterlimit="10" x1="745.959" y1="263.108" x2="538.132" y2="-564.702"/>
				<line fill="none" stroke="#939598" stroke-miterlimit="10" x1="752.212" y1="256.881" x2="544.384" y2="-570.93"/>
				<line fill="none" stroke="#939598" stroke-miterlimit="10" x1="758.461" y1="250.656" x2="550.636" y2="-577.156"/>
				<line fill="none" stroke="#939598" stroke-miterlimit="10" x1="764.714" y1="244.431" x2="556.888" y2="-583.383"/>
				<line fill="none" stroke="#939598" stroke-miterlimit="10" x1="770.967" y1="238.201" x2="563.14" y2="-589.613"/>
				<line fill="none" stroke="#939598" stroke-miterlimit="10" x1="777.219" y1="231.976" x2="569.391" y2="-595.838"/>
				<line fill="none" stroke="#939598" stroke-miterlimit="10" x1="783.47" y1="225.748" x2="575.642" y2="-602.068"/>
				<line fill="none" stroke="#939598" stroke-miterlimit="10" x1="789.721" y1="219.52" x2="581.894" y2="-608.295"/>
				<line fill="none" stroke="#939598" stroke-miterlimit="10" x1="795.973" y1="213.29" x2="588.146" y2="-614.521"/>
				<line fill="none" stroke="#939598" stroke-miterlimit="10" x1="802.224" y1="207.064" x2="594.396" y2="-620.75"/>
				<line fill="none" stroke="#939598" stroke-miterlimit="10" x1="808.476" y1="200.839" x2="600.649" y2="-626.977"/>
				<line fill="none" stroke="#939598" stroke-miterlimit="10" x1="814.729" y1="194.614" x2="606.901" y2="-633.203"/>
				<line fill="none" stroke="#939598" stroke-miterlimit="10" x1="820.981" y1="188.383" x2="613.151" y2="-639.431"/>
				<line fill="none" stroke="#939598" stroke-miterlimit="10" x1="827.232" y1="182.156" x2="619.404" y2="-645.658"/>
				<line fill="none" stroke="#939598" stroke-miterlimit="10" x1="833.483" y1="175.928" x2="625.657" y2="-651.885"/>
				<line fill="none" stroke="#939598" stroke-miterlimit="10" x1="839.735" y1="169.703" x2="631.908" y2="-658.111"/>
				<line fill="none" stroke="#939598" stroke-miterlimit="10" x1="845.986" y1="163.473" x2="638.159" y2="-664.34"/>
				<line fill="none" stroke="#939598" stroke-miterlimit="10" x1="852.237" y1="157.248" x2="644.411" y2="-670.566"/>
				<line fill="none" stroke="#939598" stroke-miterlimit="10" x1="858.489" y1="151.02" x2="650.662" y2="-676.795"/>
				<line fill="none" stroke="#939598" stroke-miterlimit="10" x1="864.742" y1="144.792" x2="656.913" y2="-683.023"/>
				<line fill="none" stroke="#939598" stroke-miterlimit="10" x1="870.993" y1="138.564" x2="663.165" y2="-689.248"/>
				<line fill="none" stroke="#939598" stroke-miterlimit="10" x1="877.246" y1="132.338" x2="669.418" y2="-695.477"/>
				<line fill="none" stroke="#939598" stroke-miterlimit="10" x1="883.498" y1="126.111" x2="675.667" y2="-701.703"/>
				<line fill="none" stroke="#939598" stroke-miterlimit="10" x1="889.749" y1="119.886" x2="681.922" y2="-707.932"/>
				<line fill="none" stroke="#939598" stroke-miterlimit="10" x1="896" y1="113.656" x2="688.172" y2="-714.157"/>
				<line fill="none" stroke="#939598" stroke-miterlimit="10" x1="902.252" y1="107.429" x2="694.425" y2="-720.388"/>
				<line fill="none" stroke="#939598" stroke-miterlimit="10" x1="908.503" y1="101.201" x2="700.676" y2="-726.615"/>
				<line fill="none" stroke="#939598" stroke-miterlimit="10" x1="914.754" y1="94.974" x2="706.928" y2="-732.841"/>
				<line fill="none" stroke="#939598" stroke-miterlimit="10" x1="921.006" y1="88.748" x2="713.179" y2="-739.068"/>
				<line fill="none" stroke="#939598" stroke-miterlimit="10" x1="927.259" y1="82.52" x2="719.432" y2="-745.296"/>
				<line fill="none" stroke="#939598" stroke-miterlimit="10" x1="933.512" y1="76.292" x2="725.683" y2="-751.523"/>
				<line fill="none" stroke="#939598" stroke-miterlimit="10" x1="939.763" y1="70.066" x2="731.933" y2="-757.75"/>
				<line fill="none" stroke="#939598" stroke-miterlimit="10" x1="946.014" y1="63.836" x2="738.188" y2="-763.977"/>
				<line fill="none" stroke="#939598" stroke-miterlimit="10" x1="952.266" y1="57.611" x2="744.438" y2="-770.205"/>
				<line fill="none" stroke="#939598" stroke-miterlimit="10" x1="958.517" y1="51.384" x2="750.689" y2="-776.432"/>
				<line fill="none" stroke="#939598" stroke-miterlimit="10" x1="964.768" y1="45.158" x2="756.941" y2="-782.661"/>
				<line fill="none" stroke="#939598" stroke-miterlimit="10" x1="971.02" y1="38.928" x2="763.192" y2="-788.888"/>
				<line fill="none" stroke="#939598" stroke-miterlimit="10" x1="977.272" y1="32.701" x2="769.443" y2="-795.113"/>
				<line fill="none" stroke="#939598" stroke-miterlimit="10" x1="983.523" y1="26.476" x2="775.698" y2="-801.34"/>
				<line fill="none" stroke="#939598" stroke-miterlimit="10" x1="989.775" y1="20.248" x2="781.948" y2="-807.57"/>
				<line fill="none" stroke="#939598" stroke-miterlimit="10" x1="996.028" y1="14.02" x2="788.199" y2="-813.796"/>
				<line fill="none" stroke="#939598" stroke-miterlimit="10" x1="1002.279" y1="7.794" x2="794.452" y2="-820.024"/>
				<line fill="none" stroke="#939598" stroke-miterlimit="10" x1="1008.53" y1="1.566" x2="800.704" y2="-826.251"/>
				<line fill="none" stroke="#939598" stroke-miterlimit="10" x1="1014.782" y1="-4.661" x2="806.955" y2="-832.478"/>
				<line fill="none" stroke="#939598" stroke-miterlimit="10" x1="1021.033" y1="-10.891" x2="813.206" y2="-838.706"/>
				<line fill="none" stroke="#939598" stroke-miterlimit="10" x1="1027.284" y1="-17.117" x2="819.458" y2="-844.933"/>
				<line fill="none" stroke="#939598" stroke-miterlimit="10" x1="1033.539" y1="-23.343" x2="825.709" y2="-851.16"/>
				<line fill="none" stroke="#939598" stroke-miterlimit="10" x1="1039.789" y1="-29.571" x2="831.962" y2="-857.388"/>
				<line fill="none" stroke="#939598" stroke-miterlimit="10" x1="1046.04" y1="-35.799" x2="838.213" y2="-863.615"/>
			</g>
		</g>
	</g>
</g>
<g id="Layer_1_1_">
	<polygon fill="#65C5B0" points="700,300 700,69.667 294.128,215 294.128,300 	"/>
	<polygon fill="#A71E32" points="0,299.998 0,0 429.852,0.126 505.138,300 	"/>
</g>
</svg>
